<?xml version="1.0" encoding="UTF-8"?>
<svg width="344px" height="95px" viewBox="0 0 344 95" version="1.1" xmlns="http://www.w3.org/2000/svg" xmlns:xlink="http://www.w3.org/1999/xlink">
    <title>Group 8</title>
    <g id="Page-1" stroke="none" stroke-width="1" fill="none" fill-rule="evenodd">
        <g id="Group-8">
            <g id="logo" transform="translate(0.000000, 24.000000)" fill-rule="nonzero">
                <path d="M48.3624617,14.990977 L48.3624617,9.14609138 L42,9.14609138 L42,0.0045115249 L45.1834288,0.0045115249 L45.1834288,5.87728652 L48.3668576,5.87728652 L48.3668576,0.0045115249 L51.5502864,0.0045115249 L51.5502864,14.9864654 L48.3624617,14.9864654 L48.3624617,14.990977 Z M59.8205675,15 L59.8205675,9.14609138 L53.4537099,9.14609138 L53.4537099,0 L63,0 L63,14.9995899 L59.8205675,15 Z M59.8205675,3.26757444 L56.6371387,3.26757444 L56.6371387,5.88220819 L59.8193686,5.88220819" id="Path_7849" fill="#9E2521"></path>
                <path d="M0,14.9823896 L0,0 L3.22658527,0 L3.22658527,11.737973 L9.6805659,11.737973 L9.6805659,14.9827991 L0,14.9827991 L0,14.9823896 Z M23.2264724,14.9823896 L21.9376205,11.7375635 L16.1288759,11.7375635 L14.840024,15 L11.6134387,15 L17.4169177,0.00450499645 L20.643503,0.00450499645 L26.4530577,14.9852564 L23.2264724,14.9852564 L23.2264724,14.9823896 Z M19.0330457,4.56110413 L17.4221833,9.12876099 L20.6487686,9.12876099 L19.0330457,4.56110413 Z M36.7739991,10.4343909 C36.7739991,9.13121826 35.4851472,9.13121826 34.8362657,9.13121826 L31.6088704,9.13121826 L31.6088704,11.7420685 L34.8338355,11.7420685 C35.4819068,11.7375635 36.7715688,11.7375635 36.7715688,10.4343909 M39.9981541,10.4343909 C39.9981541,13.5809261 37.8485824,14.9803418 34.7730788,14.9803418 L28.3867406,14.9803418 L28.3867406,0 L34.8310002,0 C37.6205423,0 39.3508928,1.33880304 39.3508928,3.90951783 C39.4024689,5.09151804 38.8401354,6.21501806 37.8676195,6.8729864 C39.189696,7.55507911 40.015682,8.93538385 39.9997743,10.4360291 M36.1299782,4.56110413 C36.1372297,4.21328534 36.0037702,3.87754113 35.7604739,3.63154146 C35.5171775,3.38554179 35.1851228,3.25059944 34.8411263,3.25793152 L31.6133259,3.25793152 L31.6133259,5.86878174 L34.8399111,5.86878174 C35.1848051,5.8761458 35.5176852,5.74062994 35.7613103,5.49367919 C36.0049353,5.24672845 36.1381265,4.90981067 36.1299782,4.56110413" id="Path_7850" fill="#232832"></path>
            </g>
            <text id="TechTalk" font-family="IBMPlexMono-LightItalic, IBM Plex Mono" font-size="73" font-style="italic" font-weight="300" letter-spacing="-10.163934" fill="#232832">
                <tspan x="66" y="75">TechTalk</tspan>
            </text>
            <g id="Group" transform="translate(0.000000, 47.000000)">
                <rect id="Rectangle" fill="#232832" x="0" y="0" width="28" height="28" rx="2"></rect>
                <path d="M16.762,16.761 L14.762,21.761 L10.762,10.761 L21.762,14.761 L16.762,16.761 Z M16.762,16.761 L21.762,21.761 M8.95,4 L9.727,6.897 M6.898,9.726 L4,8.949 M15.712,5.811 L13.59,7.933 M7.933,13.589 L5.813,15.711" id="Shape" stroke="#FFFFFF" stroke-width="2" stroke-linecap="round" stroke-linejoin="round"></path>
            </g>
            <g id="Group" transform="translate(35.000000, 47.000000)">
                <rect id="Rectangle-Copy-17" fill="#232832" x="0" y="0" width="28" height="28" rx="2"></rect>
                <path d="M12,22 L16,6 M20,10 L24,14 L20,18 M8,18 L4,14 L8,10" id="Shape" stroke="#FFFFFF" stroke-width="2" stroke-linecap="round" stroke-linejoin="round"></path>
            </g>
        </g>
    </g>
</svg>